<svg id="Layer_1" data-name="Layer 1" xmlns="http://www.w3.org/2000/svg" viewBox="0 0 1000 427.76"><title>avidmax_horizontal_000</title><path d="M84.17,350.6l15,38.38H68.93ZM66.43,306.24,9,442.22H48.3l9.64-24.11H110l9.84,24.11H160l-57.47-136Z" transform="translate(-8.95 -15.42)"/><polygon points="239.15 291.78 208.49 377.22 177.82 291.78 135.97 291.78 190.74 427.76 225.46 427.76 280.23 291.78 239.15 291.78"/><rect x="303.76" y="291.78" width="37.61" height="135.01"/><polygon points="640.69 291.78 608.48 344.05 576.27 291.78 536.74 291.78 536.74 426.79 573.38 426.79 573.38 349.64 607.71 402.1 608.48 402.1 643.01 349.26 643.01 426.79 680.23 426.79 680.23 291.78 640.69 291.78"/><path d="M783.3,350.6l15,38.38H768.06Zm-17.74-44.36-57.47,136h39.34l9.64-24.11h52.07L819,442.22H859.1l-57.47-136Z" transform="translate(-8.95 -15.42)"/><polygon points="956.02 291.78 931.92 329.78 908 291.78 864.99 291.78 909.35 358.13 863.06 426.79 905.11 426.79 931.15 386.1 956.99 426.79 1000 426.79 953.71 357.74 998.07 291.78 956.02 291.78"/><path d="M388.5,307.21h52.07c48.22,0,76.19,27.77,76.19,66.73v.38c0,39-28.35,67.89-77,67.89H388.5ZM441.16,409c22.37,0,37.22-12.34,37.22-34.14v-.39c0-21.6-14.85-34.13-37.22-34.13H425.92V409Z" transform="translate(-8.95 -15.42)"/><path d="M607.68,182.19c-4-.53-.77-4.14-.77-4.14,8.14-8.84,23.27-24.1,31.7-31.53,0,0,2.69-2.42,1.54-4-.7-.93-2.27-.84-3.4-.28-10.15,5.1-34.33,24.44-48.09,34.41a12.28,12.28,0,0,1-7.87,2.21c-9.49-.79-19.28-2.43-28.47-3.05-4.43-.3-.58-4.44-.58-4.44A560.43,560.43,0,0,1,600,122.13s2.4-2,1.29-3.42c-.83-1.06-2.06-.82-3.61-.05-21.35,10.68-45.33,29.37-74.16,52.76,0,0-2.68,2.62-8,2.83L485.11,176c-6.15.1-2-4.65-2-4.65,19.25-24.45,61.63-58.69,80.92-73.45,0,0,2.82-2,1.89-3.5-.62-1-1.65-1.11-4.14.17-20.66,10.61-79.54,40.79-123,81.38a13,13,0,0,1-6.47,3c-13.21,1.08-12,1-26.54,3.19-12.1,1.78-4.77-6.85-4.77-6.85C443.26,130.83,541.2,58.93,557.65,58.88s95,68.07,135.49,105.34c4.22,3.88,6.85,4.89,7.83,4.13,1.35-1-2.14-6.41-2.14-6.41-23.5-39.26-120.73-147.17-141.19-146.5-31.52,1-170.71,92.35-254,187.54a939.09,939.09,0,0,0-102,33.9s-13.77,5-13.65,7.43c.1,1.95,18-1.7,18-1.7.63,0,139.35-26.56,303.07-29.26,163.77,2.7,302.55,29,303.18,29,0,0,17.29,3.83,17.84,1.93.66-2.3-13.6-7.43-13.6-7.43a894.18,894.18,0,0,0-208.69-54.67" transform="translate(-8.95 -15.42)"/></svg>
